<mxfile host="app.diagrams.net" modified="2021-01-14T06:59:01.617Z" agent="5.0 (Macintosh; Intel Mac OS X 10_15_6) AppleWebKit/605.1.15 (KHTML, like Gecko) Version/14.0.1 Safari/605.1.15" etag="rp7ueumPXV7c0KjKY0Wa" version="14.1.9" type="github" pages="2">
  <diagram id="HkhKTyQGsAA3Zcqfqv5n" name="Страница 1">
    <mxGraphModel dx="946" dy="645" grid="1" gridSize="10" guides="1" tooltips="1" connect="1" arrows="1" fold="1" page="1" pageScale="1" pageWidth="827" pageHeight="1169" math="0" shadow="0">
      <root>
        <mxCell id="0" />
        <mxCell id="1" parent="0" />
        <mxCell id="OR5a6WHwXuoUO3x659MV-1" value="" style="rounded=0;whiteSpace=wrap;html=1;" vertex="1" parent="1">
          <mxGeometry x="80" y="30" width="480" height="220" as="geometry" />
        </mxCell>
        <mxCell id="PxBFHjY-OFEHClyVO2kk-6" value="" style="edgeStyle=orthogonalEdgeStyle;rounded=0;orthogonalLoop=1;jettySize=auto;html=1;" edge="1" parent="1" source="PxBFHjY-OFEHClyVO2kk-1" target="PxBFHjY-OFEHClyVO2kk-2">
          <mxGeometry relative="1" as="geometry" />
        </mxCell>
        <mxCell id="PxBFHjY-OFEHClyVO2kk-1" value="Клиент" style="shape=umlActor;verticalLabelPosition=bottom;verticalAlign=top;html=1;outlineConnect=0;" vertex="1" parent="1">
          <mxGeometry x="40" y="80" width="30" height="60" as="geometry" />
        </mxCell>
        <mxCell id="PxBFHjY-OFEHClyVO2kk-7" value="" style="edgeStyle=orthogonalEdgeStyle;rounded=0;orthogonalLoop=1;jettySize=auto;html=1;dashed=1;" edge="1" parent="1" source="PxBFHjY-OFEHClyVO2kk-2" target="PxBFHjY-OFEHClyVO2kk-3">
          <mxGeometry relative="1" as="geometry" />
        </mxCell>
        <mxCell id="PxBFHjY-OFEHClyVO2kk-10" value="&amp;lt;&amp;lt;include&amp;gt;&amp;gt;" style="edgeLabel;html=1;align=center;verticalAlign=middle;resizable=0;points=[];" vertex="1" connectable="0" parent="PxBFHjY-OFEHClyVO2kk-7">
          <mxGeometry x="-0.531" y="4" relative="1" as="geometry">
            <mxPoint as="offset" />
          </mxGeometry>
        </mxCell>
        <mxCell id="PxBFHjY-OFEHClyVO2kk-8" style="edgeStyle=orthogonalEdgeStyle;rounded=0;orthogonalLoop=1;jettySize=auto;html=1;exitX=1;exitY=1;exitDx=0;exitDy=0;entryX=0;entryY=0.5;entryDx=0;entryDy=0;dashed=1;" edge="1" parent="1" source="PxBFHjY-OFEHClyVO2kk-2" target="PxBFHjY-OFEHClyVO2kk-4">
          <mxGeometry relative="1" as="geometry" />
        </mxCell>
        <mxCell id="PxBFHjY-OFEHClyVO2kk-9" value="&amp;lt;&amp;lt;include&amp;gt;&amp;gt;" style="edgeLabel;html=1;align=center;verticalAlign=middle;resizable=0;points=[];" vertex="1" connectable="0" parent="PxBFHjY-OFEHClyVO2kk-8">
          <mxGeometry x="-0.3784" y="-3" relative="1" as="geometry">
            <mxPoint as="offset" />
          </mxGeometry>
        </mxCell>
        <mxCell id="PxBFHjY-OFEHClyVO2kk-2" value="Создать обращение&amp;nbsp;" style="ellipse;whiteSpace=wrap;html=1;" vertex="1" parent="1">
          <mxGeometry x="120" y="100" width="130" height="40" as="geometry" />
        </mxCell>
        <mxCell id="PxBFHjY-OFEHClyVO2kk-3" value="Ввести данные на форуме" style="ellipse;whiteSpace=wrap;html=1;" vertex="1" parent="1">
          <mxGeometry x="380" y="60" width="140" height="50" as="geometry" />
        </mxCell>
        <mxCell id="PxBFHjY-OFEHClyVO2kk-4" value="Проговорить ключевые слова" style="ellipse;whiteSpace=wrap;html=1;" vertex="1" parent="1">
          <mxGeometry x="370" y="160" width="160" height="50" as="geometry" />
        </mxCell>
      </root>
    </mxGraphModel>
  </diagram>
  <diagram id="sA_Wwr3Xqc-P4fK8aX5z" name="Страница 2">
    <mxGraphModel dx="946" dy="645" grid="1" gridSize="10" guides="1" tooltips="1" connect="1" arrows="1" fold="1" page="1" pageScale="1" pageWidth="827" pageHeight="1169" math="0" shadow="0">
      <root>
        <mxCell id="tqkzhXZoFvxtZNNO5ulY-0" />
        <mxCell id="tqkzhXZoFvxtZNNO5ulY-1" parent="tqkzhXZoFvxtZNNO5ulY-0" />
        <mxCell id="7jVLW3WLk7CrNPGDZKfb-19" value="" style="whiteSpace=wrap;html=1;aspect=fixed;" vertex="1" parent="tqkzhXZoFvxtZNNO5ulY-1">
          <mxGeometry x="160" y="110" width="390" height="390" as="geometry" />
        </mxCell>
        <mxCell id="7jVLW3WLk7CrNPGDZKfb-4" value="" style="edgeStyle=orthogonalEdgeStyle;rounded=0;orthogonalLoop=1;jettySize=auto;html=1;" edge="1" parent="tqkzhXZoFvxtZNNO5ulY-1" source="tqkzhXZoFvxtZNNO5ulY-2" target="7jVLW3WLk7CrNPGDZKfb-2">
          <mxGeometry relative="1" as="geometry" />
        </mxCell>
        <mxCell id="7jVLW3WLk7CrNPGDZKfb-15" style="edgeStyle=orthogonalEdgeStyle;rounded=0;orthogonalLoop=1;jettySize=auto;html=1;exitX=1;exitY=1;exitDx=0;exitDy=0;exitPerimeter=0;entryX=0;entryY=0.5;entryDx=0;entryDy=0;" edge="1" parent="tqkzhXZoFvxtZNNO5ulY-1" source="tqkzhXZoFvxtZNNO5ulY-2" target="7jVLW3WLk7CrNPGDZKfb-12">
          <mxGeometry relative="1" as="geometry" />
        </mxCell>
        <mxCell id="7jVLW3WLk7CrNPGDZKfb-18" style="edgeStyle=orthogonalEdgeStyle;rounded=0;orthogonalLoop=1;jettySize=auto;html=1;exitX=1;exitY=1;exitDx=0;exitDy=0;exitPerimeter=0;entryX=0;entryY=0.5;entryDx=0;entryDy=0;" edge="1" parent="tqkzhXZoFvxtZNNO5ulY-1" source="tqkzhXZoFvxtZNNO5ulY-2" target="7jVLW3WLk7CrNPGDZKfb-17">
          <mxGeometry relative="1" as="geometry" />
        </mxCell>
        <mxCell id="tqkzhXZoFvxtZNNO5ulY-2" value="ИИ" style="shape=umlActor;verticalLabelPosition=bottom;verticalAlign=top;html=1;outlineConnect=0;" vertex="1" parent="tqkzhXZoFvxtZNNO5ulY-1">
          <mxGeometry x="110" y="180" width="30" height="60" as="geometry" />
        </mxCell>
        <mxCell id="7jVLW3WLk7CrNPGDZKfb-0" value="Анализ введенных данных" style="ellipse;whiteSpace=wrap;html=1;" vertex="1" parent="tqkzhXZoFvxtZNNO5ulY-1">
          <mxGeometry x="380" y="130" width="120" height="70" as="geometry" />
        </mxCell>
        <mxCell id="7jVLW3WLk7CrNPGDZKfb-1" value="Анализ сказанных данных" style="ellipse;whiteSpace=wrap;html=1;" vertex="1" parent="tqkzhXZoFvxtZNNO5ulY-1">
          <mxGeometry x="380" y="230" width="120" height="80" as="geometry" />
        </mxCell>
        <mxCell id="7jVLW3WLk7CrNPGDZKfb-8" style="edgeStyle=orthogonalEdgeStyle;rounded=0;orthogonalLoop=1;jettySize=auto;html=1;exitX=1;exitY=1;exitDx=0;exitDy=0;dashed=1;" edge="1" parent="tqkzhXZoFvxtZNNO5ulY-1" source="7jVLW3WLk7CrNPGDZKfb-2" target="7jVLW3WLk7CrNPGDZKfb-1">
          <mxGeometry relative="1" as="geometry" />
        </mxCell>
        <mxCell id="7jVLW3WLk7CrNPGDZKfb-11" value="&amp;lt;&amp;lt;include&amp;gt;&amp;gt;" style="edgeLabel;html=1;align=center;verticalAlign=middle;resizable=0;points=[];" vertex="1" connectable="0" parent="7jVLW3WLk7CrNPGDZKfb-8">
          <mxGeometry x="-0.3786" y="1" relative="1" as="geometry">
            <mxPoint as="offset" />
          </mxGeometry>
        </mxCell>
        <mxCell id="7jVLW3WLk7CrNPGDZKfb-9" style="edgeStyle=orthogonalEdgeStyle;rounded=0;orthogonalLoop=1;jettySize=auto;html=1;exitX=1;exitY=0;exitDx=0;exitDy=0;entryX=0;entryY=0.5;entryDx=0;entryDy=0;dashed=1;" edge="1" parent="tqkzhXZoFvxtZNNO5ulY-1" source="7jVLW3WLk7CrNPGDZKfb-2" target="7jVLW3WLk7CrNPGDZKfb-0">
          <mxGeometry relative="1" as="geometry" />
        </mxCell>
        <mxCell id="7jVLW3WLk7CrNPGDZKfb-10" value="&amp;lt;&amp;lt;include&amp;gt;&amp;gt;" style="edgeLabel;html=1;align=center;verticalAlign=middle;resizable=0;points=[];" vertex="1" connectable="0" parent="7jVLW3WLk7CrNPGDZKfb-9">
          <mxGeometry x="-0.2638" y="-1" relative="1" as="geometry">
            <mxPoint as="offset" />
          </mxGeometry>
        </mxCell>
        <mxCell id="7jVLW3WLk7CrNPGDZKfb-2" value="Выявление проблемы&amp;nbsp;" style="ellipse;whiteSpace=wrap;html=1;" vertex="1" parent="tqkzhXZoFvxtZNNO5ulY-1">
          <mxGeometry x="180" y="185" width="110" height="50" as="geometry" />
        </mxCell>
        <mxCell id="7jVLW3WLk7CrNPGDZKfb-12" value="Переадресация на соответствующего специалиста" style="ellipse;whiteSpace=wrap;html=1;" vertex="1" parent="tqkzhXZoFvxtZNNO5ulY-1">
          <mxGeometry x="230" y="310" width="140" height="80" as="geometry" />
        </mxCell>
        <mxCell id="7jVLW3WLk7CrNPGDZKfb-17" value="Изменение статуса заявки" style="ellipse;whiteSpace=wrap;html=1;" vertex="1" parent="tqkzhXZoFvxtZNNO5ulY-1">
          <mxGeometry x="230" y="410" width="150" height="80" as="geometry" />
        </mxCell>
      </root>
    </mxGraphModel>
  </diagram>
</mxfile>
